<svg xmlns="http://www.w3.org/2000/svg" viewBox="0 0 128 128" fill="none">
  <rect width="128" height="128" rx="12" fill="#3178C6"/>
  <path d="M56.7 67.8v7.3h-12v38h-9.2V75.1H23.5v-7.3h33.2z" fill="white"/>
  <path d="M67.4 110.7c-2.2-1.1-3.9-2.7-5.2-4.7-1-1.5-1.6-3.2-2-5.3l8.2-1.4c.2 1.2.7 2.3 1.4 3.3 1.3 1.7 3.4 2.6 6.4 2.6 2.7 0 4.6-.6 5.8-1.8 1.2-1.2 1.7-2.6 1.7-4.2 0-1.5-.5-2.7-1.4-3.6-.9-.9-3-1.9-6.1-3l-4-1.3c-4.4-1.5-7.5-3.3-9.3-5.5-1.8-2.2-2.7-5-2.7-8.4 0-3 .7-5.6 2.2-7.7 1.5-2.1 3.5-3.8 6.1-4.9 2.6-1.1 5.5-1.7 8.7-1.7 5 0 9 1.2 12 3.7 2.2 1.8 3.6 4.3 4.3 7.3l-8 1.5c-.4-1.5-1.2-2.8-2.4-3.8-1.5-1.3-3.6-1.9-6.1-1.9-2.5 0-4.4.5-5.6 1.6-1.2 1.1-1.8 2.4-1.8 3.9 0 1.4.5 2.5 1.6 3.5 1 .9 3.2 1.9 6.5 3.1l3.8 1.3c3.9 1.4 6.8 3.2 8.7 5.4 1.9 2.2 2.8 5.1 2.8 8.7 0 3.3-.9 6.1-2.6 8.4-1.7 2.3-4 4.1-6.7 5.2-2.8 1.2-5.9 1.7-9.3 1.7-4.5 0-8.4-1-11.6-3.1z" fill="white"/>
</svg>
